<svg version="1.1" xmlns="http://www.w3.org/2000/svg" xmlns:xlink="http://www.w3.org/1999/xlink" width="4032.32379" height="433.75516" viewBox="0,0,4032.32379,433.75516"><g transform="translate(1776.16187,36.87759)"><g stroke="none" stroke-miterlimit="10"><path d="M1554.16191,-35.97949c4.24014,-0.86579 7.77292,-1.01489 12,0c3.82731,3.24839 6.60709,7.03977 9.55518,11.07959c2.43958,3.2426 5.13714,6.25371 7.81982,9.29541c1.10117,1.26614 2.20143,2.53307 3.30078,3.80078c0.54866,0.63116 1.09731,1.26231 1.6626,1.9126c7.40883,8.52353 14.80054,17.06097 22.14233,25.64233c3.65655,4.27088 7.33372,8.52344 11.01929,12.76929c4.68096,5.39255 9.33836,10.80446 13.98047,16.23047c4.19884,4.90416 8.42561,9.7837 12.65967,14.65747c3.17905,3.66233 6.33782,7.34079 9.48071,11.03418c8.56832,10.05641 17.43283,19.7178 26.82861,29.0083c2.75386,2.73332 5.42065,5.47725 7.92554,8.44458c4.04861,4.78102 8.56304,9.11287 13.03271,13.49561c3.14698,3.10433 6.17549,6.24804 9.06104,9.59814c3.64191,4.22364 7.55159,8.12783 11.53125,12.03125c1.35672,1.33073 2.7109,2.66406 4.0625,4c0.5891,0.5775 1.1782,1.155 1.78516,1.75c1.83049,1.91354 3.55194,3.86605 5.27567,5.87431c3.84178,4.39897 7.90831,8.52752 12.05588,12.63667c0.78636,0.78329 1.57272,1.56658 2.3829,2.37361c1.69524,1.68813 3.3916,3.37512 5.08899,5.06109c2.6942,2.67668 5.38474,5.35701 8.07428,8.03837c7.64342,7.61908 15.29241,15.23254 22.94601,22.84138c4.69399,4.66663 9.38254,9.33867 14.06836,14.01349c1.77693,1.77076 3.55576,3.53963 5.33657,5.30649c8.77539,8.70723 17.38151,17.28724 24.92368,27.10457c0.96945,1.16073 1.94644,2.31523 2.93359,3.46094c9.6431,11.22271 18.42125,22.93534 26.90625,35.04688c3.30593,4.71326 6.66385,9.38803 10.03516,14.05469c0.78468,1.08801 0.78468,1.08801 1.58521,2.198c1.50741,2.08442 3.01612,4.16692 4.53979,6.2395c0.41314,0.57406 0.82627,1.14812 1.25193,1.73958c3.41388,4.66853 7.04828,8.849 11.14895,12.92009c0.60893,0.61243 1.21785,1.22486 1.84523,1.85585c1.98853,1.99724 3.98417,3.98718 5.98045,5.97667c1.39461,1.39596 2.78892,2.79221 4.18295,4.18875c2.91006,2.913 5.82368,5.82238 8.7399,8.72922c3.73706,3.72563 7.46502,7.46022 11.19039,11.19754c2.87197,2.87919 5.74868,5.75361 8.62685,8.62659c1.37698,1.37565 2.75249,2.75279 4.12647,4.13143c1.9168,1.92187 3.83988,3.83722 5.76478,5.75098c0.84793,0.85401 0.84793,0.85401 1.713,1.72527c3.76573,3.75476 3.76573,3.75476 8.42909,6.15804c9.89213,-0.10566 22.90585,-2.53969 30.53516,-9.37549c3.06263,-3.27856 5.60797,-6.89487 8.10693,-10.6123c1.40095,-2.07598 2.84984,-4.10998 4.31494,-6.14111c2.56916,-3.57175 5.08664,-7.17662 7.5918,-10.79346c1.34452,-1.92495 2.71265,-3.82976 4.0918,-5.72998c7.96954,-11.10107 14.58119,-22.97866 21.27258,-34.87279c24.0844,-42.80004 24.0844,-42.80004 36.0199,-60.40773c4.11168,-6.07705 8.05733,-12.25727 12.00439,-18.44214c0.69577,-1.08869 1.39154,-2.17739 2.1084,-3.29907c3.74953,-5.868 3.74953,-5.868 7.48975,-11.74194c8.1261,-12.78238 16.76412,-25.18717 25.46436,-37.58398c1.19168,-1.70163 2.3831,-3.40344 3.57422,-5.10547c1.71145,-2.44545 3.42313,-4.89074 5.13599,-7.33521c4.44395,-6.34339 8.8693,-12.69957 13.28979,-19.05933c5.55468,-7.9915 11.12553,-15.97136 16.71094,-23.94141c5.12241,-7.31277 10.22077,-14.64215 15.31494,-21.97461c3.8409,-5.52612 7.696,-11.04183 11.56738,-16.54663c2.30424,-3.28145 4.59695,-6.57084 6.88721,-9.86206c1.34027,-1.91867 2.69401,-3.82689 4.05078,-5.73389c7.74312,-11.05932 13.98333,-23.02299 20.42493,-34.86501c3.34057,-6.13636 6.74669,-12.23517 10.16882,-18.3264c1.14067,-2.03122 2.2813,-4.06247 3.42188,-6.09375c0.84595,-1.50627 0.84595,-1.50627 1.70898,-3.04297c2.44216,-4.35924 4.86811,-8.72744 7.29541,-13.09497c1.76493,-3.16293 3.54606,-6.31618 5.33154,-9.46753c1.87296,-3.3065 3.68966,-6.62567 5.42188,-10.00781c1.65104,-3.12108 3.21718,-5.98554 5.69531,-8.54297c3.56828,-1.01067 6.4156,-0.85937 10,0c-0.6677,3.28886 -1.88189,5.89084 -3.48437,8.83203c-0.77428,1.42687 -0.77428,1.42687 -1.56421,2.88257c-0.8422,1.53346 -0.8422,1.53346 -1.70142,3.0979c-0.58274,1.06807 -1.16547,2.13614 -1.76587,3.23657c-4.97268,9.08505 -10.05559,18.10621 -15.17163,27.11108c-3.44124,6.05792 -6.84755,12.13508 -10.25,18.21484c-0.58274,1.03745 -1.16547,2.07491 -1.76587,3.1438c-2.94638,5.2508 -5.86431,10.51413 -8.73022,15.80933c-7.41678,13.62397 -15.57125,26.38203 -24.62891,38.97119c-3.01784,4.20658 -5.97533,8.45482 -8.9375,12.70068c-1.14563,1.63556 -2.29146,3.27098 -3.4375,4.90625c-3.86608,5.52297 -7.71475,11.058 -11.5625,16.59375c-5.55468,7.9915 -11.12553,15.97136 -16.71094,23.94141c-5.12149,7.31144 -10.21805,14.64009 -15.31274,21.97021c-4.45891,6.41317 -8.93164,12.81646 -13.41382,19.21338c-1.68962,2.41378 -3.37903,4.82771 -5.06836,7.2417c-0.93,1.32784 -1.86084,2.65509 -2.79297,3.98145c-5.99319,8.5282 -11.6862,17.2277 -17.31592,25.99756c-1.74613,2.71552 -3.50328,5.4238 -5.26099,8.13184c-1.84003,2.83693 -3.67449,5.67744 -5.50806,8.51855c-1.16522,1.8052 -2.33134,3.60982 -3.49805,5.41406c-7.81934,12.10199 -15.5755,24.20989 -22.75,36.70703c-1.58837,2.76633 -3.18517,5.52773 -4.78223,8.28906c-4.8817,8.44712 -9.76215,16.89493 -14.59978,25.36739c-0.9964,1.74428 -1.99455,3.48755 -2.99324,5.23051c-1.24292,2.17036 -2.4826,4.34258 -3.71826,6.51709c-5.91623,10.31707 -12.52856,20.11734 -19.52466,29.72876c-0.54793,0.75515 -1.09586,1.5103 -1.6604,2.28833c-3.8117,5.23911 -7.65346,10.45569 -11.5271,15.64917c-0.47147,0.63454 -0.94295,1.26908 -1.42871,1.92285c-1.35945,1.81163 -2.7424,3.60247 -4.13379,5.38965c-0.4689,0.62568 -0.93779,1.25136 -1.4209,1.896c-3.40115,4.31092 -6.70095,6.61402 -11.9541,8.354c-0.68755,0.24178 -1.37511,0.48356 -2.0835,0.73267c-8.71498,2.935 -19.48952,6.55334 -28.5415,4.01733c-4.94181,-2.946 -8.83781,-6.53037 -12.90063,-10.57837c-0.66274,-0.65281 -1.32549,-1.30563 -2.00832,-1.97823c-2.18307,-2.15396 -4.35837,-4.31554 -6.53246,-6.47856c-1.12583,-1.11734 -1.12583,-1.11734 -2.2744,-2.25726c-3.98212,-3.95216 -7.95845,-7.91003 -11.92995,-11.87287c-4.05854,-4.04765 -8.13523,-8.07647 -12.21681,-12.10087c-3.17205,-3.13434 -6.33016,-6.28247 -9.48492,-9.43419c-1.49417,-1.48821 -2.99324,-2.97152 -4.4977,-4.44933c-9.95928,-9.79553 -18.09623,-19.92891 -25.68548,-31.65223c-2.46981,-3.69479 -5.15089,-7.22716 -7.84433,-10.76059c-0.79073,-1.03973 -0.79073,-1.03973 -1.59744,-2.10047c-0.46027,-0.60493 -0.92053,-1.20986 -1.39475,-1.83312c-2.13696,-2.81841 -4.15728,-5.69424 -6.13281,-8.62891c-3.7919,-5.50706 -8.20449,-10.45808 -12.58594,-15.49609c-2.39627,-2.76072 -4.70965,-5.57278 -6.97656,-8.44141c-1.31108,-1.64697 -2.62378,-3.29264 -3.9375,-4.9375c-0.65503,-0.82977 -1.31005,-1.65954 -1.98492,-2.51445c-9.30191,-11.391 -19.87349,-21.58458 -30.29473,-31.93506c-2.78333,-2.76689 -5.56041,-5.54005 -8.33809,-8.31262c-5.25029,-5.23898 -10.50524,-10.47326 -15.76232,-15.70542c-9.41769,-9.37312 -18.82964,-18.752 -28.23637,-28.13612c-3.2929,-3.28456 -6.58859,-6.56628 -9.88664,-9.84567c-2.05484,-2.04413 -4.1076,-4.09034 -6.15986,-6.13706c-1.39117,-1.3861 -2.7849,-2.76963 -4.17873,-4.15305c-4.42363,-4.41568 -8.70263,-8.88954 -12.76465,-13.64144c-1.69158,-1.96517 -3.47995,-3.80432 -5.33119,-5.6191c-0.66773,-0.66 -1.33547,-1.32 -2.02344,-2c-0.67289,-0.66 -1.34578,-1.32 -2.03906,-2c-4.62225,-4.5337 -9.03754,-9.13823 -13.2627,-14.04443c-2.8832,-3.24543 -6.00427,-6.2402 -9.1123,-9.26807c-5.20549,-5.13464 -9.99089,-10.33449 -14.51953,-16.07812c-2.26661,-2.80909 -4.6585,-5.45631 -7.10547,-8.10937c-4.09351,-4.44727 -7.92442,-9.04717 -11.71875,-13.75c-2.34844,-2.831 -4.79035,-5.54384 -7.28125,-8.25c-4.09351,-4.44727 -7.92442,-9.04717 -11.71875,-13.75c-2.34844,-2.831 -4.79035,-5.54384 -7.28125,-8.25c-4.09351,-4.44727 -7.92442,-9.04717 -11.71875,-13.75c-2.34844,-2.831 -4.79035,-5.54384 -7.28125,-8.25c-4.11379,-4.46985 -7.97087,-9.09045 -11.78516,-13.81641c-2.17117,-2.63068 -4.41726,-5.16302 -6.71484,-7.68359c-3.98887,-4.37939 -7.75898,-8.90385 -11.48047,-13.51172c-1.6624,-2.04826 -3.358,-4.05479 -5.08203,-6.05078c-1.9375,-2.4375 -1.9375,-2.4375 -1.9375,-4.4375z" fill="#51e5ff"/><path d="M842.16191,-35.97949c4.20294,-0.75645 7.81579,-0.95018 12,0c3.80696,3.3453 6.16059,7.53716 8.6875,11.875c0.76461,1.23724 1.53365,2.47174 2.30688,3.70361c1.59038,2.54409 3.15854,5.0999 4.71069,7.66748c3.42556,5.64167 7.09261,11.12418 10.73242,16.62891c1.40913,2.15652 2.81667,4.31409 4.22266,6.47266c4.56128,6.99507 9.13709,13.98055 13.71484,20.96484c0.79941,1.21988 1.59881,2.43977 2.39819,3.65967c1.60647,2.45153 3.213,4.90303 4.81958,7.35449c2.38861,3.64484 4.77688,7.28992 7.16504,10.93506c0.39174,0.59793 0.78349,1.19586 1.1871,1.8119c1.97075,3.00804 3.94143,6.01613 5.91202,9.02428c3.63575,5.5499 7.27209,11.09941 10.91077,16.6474c8.37102,12.76356 16.7378,25.52908 25.00818,38.35822c1.25299,1.94122 2.50952,3.8801 3.76709,5.81836c5.4763,8.44305 10.91281,16.91082 16.33203,25.39063c5.99677,9.38207 12.03409,18.73621 18.11719,28.0625c1.93612,2.97028 3.85846,5.94856 5.76563,8.9375c6.59096,10.31311 13.54063,20.34095 20.59473,30.3418c2.36607,3.36888 4.69704,6.7612 7.02246,10.1582c7.15299,10.4343 14.37915,20.81753 21.625,31.1875c0.48356,0.694 0.96712,1.388 1.46533,2.10303c6.03436,8.64567 12.42416,16.9805 18.92529,25.27979c3.58652,4.57933 7.13668,9.18566 10.67188,13.80469c0.52376,0.68232 1.04752,1.36463 1.58716,2.06763c2.39598,3.13333 4.73809,6.28421 6.99097,9.52222c1.92209,2.62536 3.56099,4.55934 6.04688,6.59766c3.15921,2.6535 6.25513,5.35411 9.3125,8.125c2.91489,2.6318 5.84273,5.24287 8.8125,7.8125c4.22127,3.67327 8.31179,7.48381 12.41382,11.28882c3.44865,3.19323 6.9377,6.31988 10.51978,9.36353c1.89728,1.71314 3.68476,3.46848 5.47656,5.28906c8.77485,8.77367 17.23848,14.19834 28.77734,18.74609c7.05778,-8.21816 13.89505,-16.56923 20.52808,-25.13379c1.05129,-1.33291 2.12137,-2.65108 3.20361,-3.95898c6.22906,-7.57633 11.63303,-15.6396 17.08081,-23.78223c1.0158,-1.51106 2.03208,-3.0218 3.04883,-4.53223c2.06041,-3.06139 4.119,-6.12399 6.17627,-9.1875c4.29999,-6.3992 8.62963,-12.77824 12.9624,-19.15527c0.38857,-0.57191 0.77714,-1.14382 1.17749,-1.73306c0.38551,-0.56738 0.77102,-1.13476 1.16821,-1.71933c0.38061,-0.56017 0.76121,-1.12035 1.15335,-1.69749c1.11922,-1.64719 2.23855,-3.29431 3.35788,-4.94142c2.05927,-3.03518 4.11181,-6.0748 6.1626,-9.11572c10.70836,-15.8481 21.92693,-31.22538 33.73071,-46.27441c4.18487,-5.35093 8.24159,-10.78431 12.24976,-16.26855c5.17687,-7.08182 10.48703,-14.04144 15.89502,-20.948c4.20911,-5.38118 8.33452,-10.81793 12.41919,-16.29395c4.25392,-5.69788 8.55909,-11.35572 12.87329,-17.00806c4.85513,-6.36322 9.7082,-12.72658 14.48633,-19.14795c1.60796,-2.14428 3.22625,-4.27536 4.86304,-6.39722c7.79993,-10.16958 14.91021,-20.72332 21.90463,-31.45853c3.18818,-4.8927 6.39378,-9.77398 9.59756,-14.65646c0.92721,-1.41439 0.92721,-1.41439 1.87315,-2.85735c4.90078,-7.46857 9.88309,-14.87426 14.95326,-22.22908c3.26271,-4.73852 6.47286,-9.50806 9.63843,-14.31201c15.02657,-22.79071 15.02657,-22.79071 23.13916,-32.55615c2.08081,-2.50761 4.12885,-5.04166 6.18188,-7.57202c1.1119,-1.36958 2.22533,-2.73792 3.34033,-4.10498c3.94201,-4.83593 7.81157,-9.72345 11.64868,-14.64282c4.26524,-5.45289 8.63919,-10.81564 13.03564,-16.16309c0.52658,-0.64324 1.05316,-1.28648 1.5957,-1.94922c0.70407,-0.8561 0.70407,-0.8561 1.42236,-1.72949c1.22087,-1.49211 1.22087,-1.49211 2.13232,-3.47363c4.29,0 8.58,0 13,0c-7.82737,10.50516 -15.82301,20.8423 -24.11157,30.98633c-3.94244,4.83055 -7.81975,9.70639 -11.64433,14.63071c-2.32524,2.98187 -4.68187,5.92575 -7.12398,8.8129c-8.31971,9.88339 -15.50892,20.31173 -22.52197,31.15128c-2.53432,3.91678 -5.08851,7.82045 -7.64172,11.72493c-1.26388,1.93295 -2.52683,3.86651 -3.78882,5.80069c-6.53803,10.01486 -13.26463,19.89178 -20.02893,29.75499c-2.47525,3.63207 -4.92539,7.28046 -7.37305,10.93115c-8.70525,12.9714 -17.41449,25.83521 -27.10986,38.09619c-3.34999,4.27072 -6.6207,8.60263 -9.90576,12.92334c-0.69005,0.90573 -1.3801,1.81146 -2.09106,2.74463c-4.08897,5.36854 -8.15111,10.75547 -12.19019,16.16162c-4.16586,5.55447 -8.39421,11.06197 -12.60547,16.58203c-3.47211,4.55348 -6.93599,9.11192 -10.36328,13.69922c-4.1301,5.52797 -8.31472,11.01373 -12.5,16.5c-5.70045,7.47534 -11.39021,14.95627 -17,22.5c-0.39306,0.52745 -0.78612,1.0549 -1.19109,1.59833c-7.20768,9.68775 -14.08061,19.56405 -20.80891,29.58917c-1.00372,1.49039 -2.0078,2.98053 -3.01221,4.47046c-2.02858,3.00945 -4.05597,6.0197 -6.08252,9.03052c-5.01504,7.44692 -10.05909,14.87422 -15.10889,22.29761c-0.76553,1.12569 -1.53099,2.25142 -2.29639,3.3772c-0.37366,0.54956 -0.74731,1.09912 -1.13229,1.66533c-2.26368,3.33347 -4.51223,6.67661 -6.74976,10.02768c-7.93094,11.87692 -15.97784,23.41501 -25.22928,34.30357c-2.08003,2.45669 -4.10741,4.95558 -6.13867,7.45264c-0.69996,0.85336 -1.39992,1.70672 -2.12109,2.58594c-1.51814,1.8552 -3.03055,3.71509 -4.53906,5.57813c-0.79277,0.97711 -1.58555,1.95422 -2.40234,2.96094c-0.7077,0.87527 -1.41539,1.75055 -2.14453,2.65234c-0.67418,0.79535 -1.34836,1.5907 -2.04297,2.41016c-0.62262,0.78504 -1.24523,1.57008 -1.88672,2.37891c-2.11328,1.62109 -2.11328,1.62109 -4.78516,1.65234c-4.46732,-1.38424 -8.45441,-3.34102 -12.57812,-5.53125c-0.84683,-0.44851 -1.69367,-0.89703 -2.56616,-1.35913c-6.61061,-3.6107 -11.89404,-7.77496 -17.18384,-13.14087c-1.59527,-1.44737 -3.19974,-2.88464 -4.8125,-4.3125c-4.46496,-4.01707 -8.87988,-8.08609 -13.28906,-12.16406c-9.82493,-9.08378 -9.82493,-9.08378 -19.83594,-17.96094c-1.35529,-1.18622 -2.70933,-2.37387 -4.0625,-3.5625c-0.92684,-0.80953 -1.85367,-1.61906 -2.80859,-2.45312c-10.85101,-9.61035 -19.44332,-20.73964 -28.05078,-32.33594c-3.18979,-4.29241 -6.4436,-8.53389 -9.70312,-12.77344c-8.76589,-11.4358 -17.2333,-23.03589 -25.35547,-34.9375c-3.65948,-5.35735 -7.37291,-10.67696 -11.08203,-16c-1.38556,-1.99209 -2.77098,-3.98428 -4.15625,-5.97656c-2.24464,-3.22776 -4.4936,-6.45233 -6.75,-9.67187c-6.9936,-10.02199 -13.55584,-20.30849 -20.11719,-30.61719c-3.45921,-5.4333 -6.95649,-10.84037 -10.47656,-16.23437c-4.87394,-7.47428 -9.69634,-14.98037 -14.5,-22.5c-11.44591,-17.91127 -23.081,-35.69772 -34.71892,-53.48462c-2.49311,-3.81048 -4.98508,-7.6217 -7.47639,-11.43335c-9.78877,-14.97638 -19.59049,-29.94423 -29.39746,-44.90869c-2.78456,-4.24902 -5.56872,-8.4983 -8.35255,-12.74779c-1.9678,-3.00378 -3.93597,-6.00731 -5.90501,-9.01027c-3.67137,-5.60002 -7.33901,-11.20237 -10.9935,-16.81342c-1.70342,-2.61491 -3.40896,-5.22843 -5.11465,-7.84186c-0.80297,-1.23157 -1.60494,-2.46381 -2.40576,-3.69678c-4.50281,-6.93205 -9.12499,-13.72705 -14.0979,-20.33423c-1.53784,-2.229 -1.53784,-2.229 -2.53784,-5.229z" fill="#51e5ff"/><path d="M-1218.33419,-36.07714c2.83203,0.03255 5.66406,0.0651 8.49609,0.09766c-5.35642,10.73262 -12.1891,20.50741 -18.875,30.4375c-1.88168,2.80312 -3.76222,5.60701 -5.64264,8.41098c-1.27753,1.90471 -2.55565,3.80903 -3.83435,5.71295c-4.16979,6.2137 -8.30004,12.45196 -12.40582,18.7081c-1.58001,2.39956 -3.16076,4.79863 -4.74176,7.19754c-0.98192,1.494 -1.96068,2.99009 -2.93591,4.48846c-5.78818,8.88852 -11.90217,17.14581 -18.94781,25.08328c-2.2438,2.53919 -4.3919,5.11548 -6.4917,7.77368c-3.52909,4.46241 -7.13,8.86133 -10.75,13.25c-0.60054,0.72808 -1.20108,1.45616 -1.81982,2.2063c-1.23599,1.49795 -2.47216,2.99575 -3.7085,4.49341c-2.95175,3.57691 -5.89906,7.15748 -8.84668,10.73779c-1.16664,1.41669 -2.33331,2.83335 -3.5,4.25c-0.86625,1.05187 -0.86625,1.05187 -1.75,2.125c-61.25,74.375 -61.25,74.375 -63.00122,76.50146c-1.16262,1.41177 -2.32522,2.82355 -3.48779,4.23535c-3.58799,4.3571 -7.17687,8.71347 -10.76636,13.06934c-1.76868,2.14718 -3.53604,4.29544 -5.30322,6.44385c-1.92377,2.33832 -3.85225,4.67247 -5.78906,7c-8.18099,9.87893 -15.29666,20.00536 -21.58984,31.1875c-0.98571,1.72983 -1.97143,3.45966 -2.95862,5.18864c-0.99104,1.73593 -1.98033,3.47286 -2.9696,5.20979c-2.70826,4.72735 -5.47782,9.41703 -8.25928,14.10156c-1.05218,1.77729 -2.10426,3.55463 -3.15625,5.33203c-1.85684,3.13533 -3.71472,6.27005 -5.57422,9.40381c-1.88824,3.18341 -3.77104,6.37 -5.65118,9.5582c-0.72968,1.23542 -1.46101,2.46986 -2.19421,3.70319c-8.40182,14.13637 -15.20387,28.5871 -21.08038,43.91562c-0.75914,1.97304 -1.52761,3.94226 -2.29687,5.91138c-0.44247,1.15202 -0.88494,2.30404 -1.34082,3.49097c-1.21923,2.631 -2.04268,4.1422 -4.33105,5.87231c-6.16612,1.44596 -11.79082,1.36215 -17.25,-2.00391c-2.81607,-2.29938 -5.42258,-4.81784 -8.02539,-7.35352c-2.98869,-2.84654 -6.15652,-5.46734 -9.34961,-8.08008c-0.66008,-0.54116 -1.32016,-1.08233 -2.00024,-1.63989c-7.96689,-6.39229 -16.65434,-11.63519 -25.37476,-16.92261c-2.17288,-1.32391 -4.33824,-2.65783 -6.5,-4c-0.81469,-0.495 -1.62937,-0.99 -2.46875,-1.5c-3.64539,-2.69198 -5.38859,-5.9836 -7.00415,-10.14624c-5.93168,-14.73988 -13.40539,-27.40508 -22.4646,-40.41626c-1.26012,-1.84717 -2.51859,-3.69548 -3.77539,-5.54492c-6.90345,-10.10429 -14.10138,-19.87323 -21.78711,-29.39258c-1.81948,-2.30706 -3.6289,-4.62191 -5.4375,-6.9375c-3.82633,-4.87667 -7.68495,-9.72648 -11.5625,-14.5625c-5.25635,-6.55563 -10.45942,-13.15138 -15.64111,-19.76611c-1.82502,-2.32866 -3.65298,-4.655 -5.48145,-6.98096c-0.91893,-1.16942 -1.83722,-2.33935 -2.75488,-3.50977c-2.26648,-2.88958 -4.54155,-5.77139 -6.8374,-8.6377c-6.0185,-7.5388 -11.66405,-15.27989 -17.1875,-23.1875c-3.13379,-4.48438 -6.32673,-8.92428 -9.53516,-13.35547c-0.53996,-0.74604 -1.07991,-1.49209 -1.63623,-2.26074c-1.0948,-1.51207 -2.18985,-3.02395 -3.28516,-4.53564c-2.7176,-3.75256 -5.42906,-7.50955 -8.14111,-11.26611c-1.0833,-1.50002 -2.16664,-3.00002 -3.25,-4.5c-2.16667,-3 -4.33333,-6 -6.5,-9c-0.80401,-1.11218 -0.80401,-1.11218 -1.62427,-2.24683c-1.08851,-1.50861 -2.17426,-3.01921 -3.25732,-4.53174c-2.61087,-3.63926 -5.25157,-7.23766 -8.01294,-10.7644c-9.42908,-12.22208 -16.14551,-25.62362 -23.02599,-39.36562c-2.77177,-5.52095 -5.70617,-10.94027 -8.70448,-16.34142c-0.94154,-1.72969 -1.88158,-3.46019 -2.82031,-5.19141c-1.83252,-3.37831 -3.68565,-6.7433 -5.56934,-10.09326c-2.11561,-3.76775 -4.18596,-7.55812 -6.23639,-11.36169c-0.81695,-1.49865 -1.64765,-2.9899 -2.49353,-4.47241c-6.60797,-11.60914 -8.09281,-20.83099 -7.00543,-34.13123c2.65911,2.38636 4.18484,4.8894 5.86328,8.03125c0.55011,1.02472 1.10021,2.04945 1.66699,3.10522c0.58813,1.10996 1.17627,2.21993 1.78223,3.36353c0.61521,1.15186 1.23041,2.30372 1.86426,3.49048c6.19248,11.6132 12.22831,23.30808 18.26709,35.00171c2.92915,5.66161 5.88777,11.30711 8.87646,16.9375c2.08527,3.92852 4.13079,7.87648 6.17188,11.82813c6.78913,13.06893 13.90364,25.4579 22.91504,37.15332c2.77536,3.63978 5.42544,7.36963 8.09277,11.08887c1.08278,1.5004 2.16611,3.0004 3.25,4.5c19.5,27 19.5,27 21.12476,29.25024c1.08341,1.49972 2.16756,2.99891 3.25244,4.49756c2.71345,3.75029 5.41343,7.50897 8.08765,11.28735c6.49596,9.14557 13.31138,17.89662 20.50391,26.50391c3.75318,4.50079 7.31346,9.13129 10.86328,13.79297c6.83639,8.95689 13.87691,17.75513 20.92383,26.54663c3.47486,4.33849 6.93161,8.69071 10.36914,13.05884c0.42797,0.5427 0.85594,1.08539 1.29688,1.64453c5.88485,7.49314 11.39661,15.14017 16.61719,23.11328c0.62571,0.95108 1.25142,1.90215 1.89609,2.88205c1.98236,3.0143 3.96119,6.0309 5.93985,9.04764c1.3357,2.03271 2.67163,4.06526 4.00781,6.09766c1.88298,2.8642 3.76562,5.72862 5.64639,8.59427c0.56093,0.85464 1.12187,1.70928 1.6998,2.58981c0.52294,0.79885 1.04588,1.59769 1.58467,2.42075c1.22836,1.85796 2.48543,3.69121 3.752,5.5231c1.51347,2.38066 2.40125,4.27882 3.15698,6.96973c4.38522,13.63349 10.91106,18.95017 23.375,25.52051c10.24229,5.51615 19.96862,13.51018 28.66016,21.24512c0.57452,0.50692 1.14904,1.01385 1.74097,1.53613c1.09929,0.97834 2.18744,1.96939 3.26221,2.97461c3.64362,3.24059 5.72063,3.62091 10.48901,3.40332c0.38632,-1.00563 0.77263,-2.01126 1.17065,-3.04736c7.15095,-18.5235 14.32298,-36.36316 25.0647,-53.14355c3.10024,-4.93516 6.00721,-9.98484 8.93738,-15.02206c1.4311,-2.45699 2.87021,-4.90924 4.3092,-7.36162c3.00425,-5.1206 5.99827,-10.247 8.97949,-15.38104c1.52002,-2.61675 3.04326,-5.23161 4.56677,-7.84633c0.71849,-1.23517 1.43543,-2.47124 2.15063,-3.70831c5.72494,-9.90107 11.71963,-19.3665 19.25867,-27.98972c0.96197,-1.1189 1.92291,-2.2387 2.88281,-3.35937c0.69078,-0.80534 0.69078,-0.80534 1.39551,-1.62695c1.74254,-2.05395 3.42376,-4.15278 5.09668,-6.26367c5.35254,-6.74791 10.85783,-13.3703 16.34082,-20.01221c2.95175,-3.57691 5.89906,-7.15748 8.84668,-10.73779c1.16664,-1.41669 2.33331,-2.83335 3.5,-4.25c0.86625,-1.05187 0.86625,-1.05187 1.75,-2.125c47.25,-57.375 47.25,-57.375 49.00122,-59.50146c1.16262,-1.41177 2.32522,-2.82355 3.48779,-4.23535c2.97838,-3.61682 5.9572,-7.23328 8.93677,-10.84912c5.64946,-6.85661 11.29395,-13.71695 16.91406,-20.59766c2.53121,-3.08914 5.07192,-6.17027 7.61426,-9.25024c1.83724,-2.228 3.67043,-4.45927 5.50293,-6.69116c1.85838,-2.26302 3.72687,-4.51339 5.61719,-6.75c4.26146,-5.1172 7.81792,-10.54149 11.28906,-16.20947c4.05764,-6.59664 8.32873,-13.04291 12.63672,-19.47803c0.37243,-0.55652 0.74486,-1.11305 1.12857,-1.68643c1.57462,-2.35246 3.14973,-4.7046 4.72581,-7.05608c3.31518,-4.94759 6.61683,-9.90411 9.91515,-14.86296c1.01463,-1.52483 2.02928,-3.04965 3.04395,-4.57446c1.49605,-2.24829 2.99183,-4.49675 4.48669,-6.74582c1.38976,-2.09057 2.78096,-4.18017 4.17249,-6.26956c0.41893,-0.63097 0.83786,-1.26194 1.26949,-1.91203c3.62659,-5.44028 3.62659,-5.44028 6.51176,-5.55281z" fill="#51e5ff"/><path d="M-1076.83809,-35.97949c4.17702,-0.6997 7.83457,-0.85029 12,0c3.28567,2.53514 5.41882,5.68096 7.71729,9.11279c1.9434,2.85924 4.02066,5.61569 6.0835,8.3894c1.81087,2.439 3.60528,4.88952 5.39844,7.34155c3.83388,5.22178 7.74368,10.38318 11.67578,15.53125c0.66572,0.87173 1.33144,1.74346 2.01733,2.6416c2.03471,2.66204 4.0709,5.32293 6.10767,7.9834c8.32926,10.87984 16.61435,21.78235 24.71143,32.83643c4.36149,5.94075 8.80926,11.81129 13.28857,17.66357c5.65353,7.38642 11.2147,14.83194 16.71094,22.33594c4.36184,5.94078 8.80984,11.81141 13.28906,17.66406c7.45414,9.74635 14.7692,19.58704 22,29.5c0.57412,0.78568 1.14823,1.57137 1.73975,2.38086c5.79848,7.94383 11.52585,15.90397 16.92432,24.12695c3.25468,4.91052 6.65257,9.72364 10.02344,14.55469c5.61669,8.0525 11.20527,16.12241 16.73364,24.23584c2.4153,3.54414 4.83751,7.08178 7.30151,10.59229c9.58245,13.68745 18.25865,27.94716 27.00781,42.17578c6.30575,10.21924 12.76732,20.27513 19.64453,30.12109c1.01949,1.46156 1.01949,1.46156 2.05957,2.95264c2.64978,3.77897 5.29559,7.54971 8.11621,11.20361c7.81449,10.40027 12.64274,22.51274 17.94385,34.31689c2.0419,4.52954 4.13905,9.03171 6.25537,13.52686c0.48449,1.04076 0.48449,1.04076 0.97876,2.10254c1.30923,3.06827 1.30923,3.06827 3.27124,5.70996c5.67041,-10.93308 10.6247,-22.00194 15.1875,-33.4375c5.53467,-13.85406 11.95501,-25.94291 20.29828,-38.30945c4.69166,-6.98085 9.30962,-14.01139 13.94464,-21.02991c1.24815,-1.88882 2.49748,-3.77685 3.74805,-5.66406c11.45124,-17.2829 22.46417,-34.80836 33.07153,-52.62158c5.34288,-8.93633 10.7174,-17.85273 16.125,-26.75c0.35381,-0.58218 0.70761,-1.16437 1.07214,-1.76419c1.79815,-2.95856 3.59678,-5.91683 5.39563,-8.87497c3.20258,-5.26701 6.40087,-10.53662 9.59949,-15.80603c1.05322,-1.73487 2.10671,-3.46957 3.16028,-5.20422c3.28318,-5.40591 6.56476,-10.81278 9.84076,-16.22305c1.52634,-2.52051 3.05357,-5.04047 4.58087,-7.56039c0.71903,-1.18691 1.43764,-2.37407 2.15576,-3.56152c6.33041,-10.46727 12.6798,-20.84423 19.94507,-30.69312c4.57159,-6.26005 9.02456,-12.58438 13.375,-19c4.75251,-7.0037 9.64128,-13.88984 14.625,-20.73047c3.89024,-5.35843 7.65681,-10.79057 11.375,-16.26953c4.75279,-7.00351 9.64127,-13.88983 14.625,-20.73047c3.89024,-5.35843 7.65673,-10.79062 11.375,-16.26953c4.48849,-6.6121 9.06767,-13.14855 13.75,-19.625c0.84208,-1.16499 0.84208,-1.16499 1.70117,-2.35352c3.90595,-5.37861 3.90595,-5.37861 5.04883,-6.52148c2.01964,-0.07244 4.04167,-0.08377 6.0625,-0.0625c1.10473,0.00902 2.20945,0.01805 3.34766,0.02734c0.85465,0.0116 1.7093,0.0232 2.58984,0.03516c-3.72909,6.12181 -7.66271,12.00165 -11.9375,17.75c-5.52344,7.43255 -10.80897,15.02039 -16.08325,22.6311c-4.01015,5.78653 -8.03649,11.5602 -12.10425,17.3064c-4.31079,6.0909 -8.59928,12.19693 -12.875,18.3125c-4.31903,6.17686 -8.64898,12.34563 -13,18.5c-4.90537,6.9396 -9.79323,13.89129 -14.65283,20.86304c-2.89879,4.15626 -5.81469,8.29683 -8.78467,12.40259c-8.25985,11.4841 -15.56504,23.41958 -22.6875,35.62891c-3.38718,5.80313 -6.87713,11.53234 -10.4375,17.23047c-4.63733,7.43546 -9.18931,14.91702 -13.6875,22.4375c-6.04796,10.11122 -12.13688,20.19657 -18.26147,30.26147c-0.71625,1.17715 -1.43247,2.35432 -2.14868,3.53149c-0.35588,0.58487 -0.71175,1.16973 -1.07841,1.77232c-2.20391,3.62473 -4.39818,7.2551 -6.58485,10.89026c-1.47394,2.44987 -2.95096,4.89787 -4.4281,7.34581c-1.00745,1.67229 -2.01065,3.34714 -3.01361,5.02213c-4.75398,7.8721 -9.78946,15.5233 -14.91382,23.15747c-3.58077,5.33484 -7.1232,10.69463 -10.66089,16.05811c-0.62204,0.94304 -1.24408,1.88608 -1.88496,2.8577c-1.26554,1.9192 -2.53085,3.83854 -3.79594,5.75803c-1.93801,2.93997 -3.87756,5.87893 -5.81714,8.81787c-1.25074,1.89707 -2.5014,3.79421 -3.75195,5.69141c-0.57089,0.86469 -1.14178,1.72938 -1.72997,2.62027c-1.56727,2.37977 -3.12492,4.76555 -4.68019,7.15317c-0.45671,0.68896 -0.91341,1.37793 -1.38396,2.08777c-2.98912,4.6069 -5.19018,9.25229 -7.17464,14.36536c-0.31164,0.78147 -0.62327,1.56295 -0.94435,2.3681c-0.98557,2.4734 -1.96098,4.95062 -2.93456,7.42877c-14.7879,37.52287 -14.7879,37.52287 -23.5625,43.75c-2.4375,0.25 -2.4375,0.25 -5,-1c-1.99707,-2.64477 -3.46649,-5.08165 -5,-8c-0.51691,-0.9784 -1.03383,-1.9568 -1.56641,-2.96484c-3.45264,-6.74869 -6.68916,-13.5721 -9.79297,-20.48828c-6.87132,-15.23474 -13.94041,-29.23823 -24.14795,-42.58936c-10.84609,-14.22375 -19.87548,-29.82036 -29.23096,-45.03564c-8.05556,-13.05732 -16.54173,-25.71882 -25.3877,-38.25244c-2.82956,-4.03053 -5.60317,-8.09842 -8.37402,-12.16943c-5.46656,-8.01757 -11.00184,-15.98599 -16.5542,-23.94434c-3.69309,-5.29867 -7.35599,-10.61545 -10.98022,-15.96143c-10.15611,-14.96837 -21.0065,-29.39077 -31.99951,-43.75122c-4.43023,-5.79618 -8.78406,-11.64233 -13.09106,-17.53052c-4.52615,-6.18506 -9.14551,-12.28154 -13.875,-18.3125c-5.33446,-6.8024 -10.50594,-13.7066 -15.60938,-20.68359c-4.39294,-5.99392 -8.87303,-11.916 -13.39062,-17.81641c-5.65366,-7.38632 -11.2147,-14.83195 -16.71094,-22.33594c-4.36184,-5.94078 -8.80978,-11.81146 -13.28906,-17.66406c-5.3071,-6.93773 -10.56546,-13.90761 -15.75,-20.9375c-0.57234,-0.77473 -1.14469,-1.54945 -1.73437,-2.34766c-2.94566,-4.00779 -5.79627,-8.05001 -8.51562,-12.21484z" fill="#51e5ff"/><path d="M163.16191,-35.97949c4.34286,-1.18442 7.64881,-1.21045 12,0c6.86158,4.88199 12.31438,11.73848 17.79053,18.07031c3.90079,4.504 7.95236,8.76213 12.20947,12.92969c7.31571,7.2319 7.31571,7.2319 10.4375,10.9375c3.45289,4.08871 7.26327,7.79984 11.0625,11.5625c4.34365,4.30188 8.56049,8.60308 12.5,13.28125c3.67201,4.07363 7.63333,7.87005 11.52905,11.72827c3.68088,3.65895 7.19261,7.36788 10.53735,11.33813c2.8531,3.17587 5.89982,6.14994 8.93359,9.15234c7.35716,7.2811 7.35716,7.2811 10.4375,10.9375c3.40461,4.03702 7.17817,7.67335 10.9375,11.375c5.1081,5.04981 9.87244,10.17532 14.32813,15.82031c2.8005,3.49586 5.72714,6.86775 8.67188,10.24219c7.45683,8.56483 14.84518,17.18006 22,26c4.16656,5.12234 8.48701,10.09917 12.82544,15.07544c3.92445,4.51171 7.73383,9.10282 11.49878,13.74878c3.18113,3.87245 6.44832,7.66807 9.7168,11.4668c4.77105,5.54506 9.49747,11.12682 14.21631,16.71631c1.39227,1.64677 2.78773,3.29078 4.18408,4.93408c4.25099,5.00594 8.47924,10.024 12.62109,15.12109c4.41163,5.41821 8.95574,10.71521 13.51172,16.01172c6.24505,7.26109 12.44709,14.55632 18.48828,21.98828c3.95758,4.86379 8.02792,9.62131 12.12085,14.37085c3.76428,4.3772 7.43092,8.8248 11.06274,13.31274c1.84106,2.22802 3.70507,4.4214 5.60156,6.60156c0.55301,0.6368 1.10602,1.27359 1.67578,1.92969c1.09336,1.25506 2.1909,2.50649 3.29297,3.75391c3.80859,4.37393 3.80859,4.37393 3.80859,6.59375c0.52723,0.2127 1.05445,0.42539 1.59766,0.64453c3.9892,2.25082 7.20298,5.51159 10.53711,8.63086c3.21711,2.94164 3.21711,2.94164 7.34839,3.7356c3.6416,-1.46279 4.27461,-3.45511 5.97778,-6.94849c0.30705,-0.61854 0.6141,-1.23708 0.93045,-1.87436c1.01303,-2.05422 1.99851,-4.12039 2.98361,-6.18814c0.70793,-1.45315 1.41693,-2.90578 2.12695,-4.35791c5.81895,-11.96642 11.33038,-24.07485 16.78256,-36.21173c4.13222,-9.19474 8.401,-18.31994 12.71548,-27.43036c5.26436,-11.12378 10.4318,-22.28551 15.5,-33.5c4.95296,-10.95209 9.96604,-21.87391 15.07202,-32.75562c0.69167,-1.47427 1.38229,-2.94903 2.07178,-4.42432c5.08156,-10.86546 10.25629,-21.15733 17.4187,-30.82007c1.15838,-1.58273 2.31591,-3.16607 3.47266,-4.75c0.58024,-0.79277 1.16048,-1.58555 1.7583,-2.40234c2.60834,-3.58824 5.15854,-7.21644 7.70654,-10.84766c4.07976,-5.80434 8.20868,-11.57001 12.375,-17.3125c5.21198,-7.18678 10.31808,-14.44253 15.39404,-21.72583c4.3795,-6.27316 8.84118,-12.48207 13.33643,-18.67261c4.025,-5.55509 7.97226,-11.16107 11.89453,-16.78906c4.96439,-7.1233 10.00389,-14.1854 15.10547,-21.21094c4.025,-5.55509 7.97209,-11.16119 11.89453,-16.78906c4.6593,-6.68172 9.35903,-13.33137 14.125,-19.9375c0.53238,-0.73928 1.06477,-1.47855 1.61328,-2.24023c0.97977,-1.3538 1.96628,-2.70276 2.96094,-4.04565c1.14168,-1.55931 2.22982,-3.15752 3.30859,-4.76099c1.99219,-2.01562 1.99219,-2.01562 4.78906,-2.50391c0.97453,0.05801 1.94906,0.11602 2.95313,0.17578c1.47727,0.06768 1.47727,0.06768 2.98438,0.13672c1.12148,0.08701 1.12148,0.08701 2.26563,0.17578c-1.56636,4.84739 -4.35402,8.34934 -7.4375,12.3125c-4.14898,5.42756 -8.16563,10.90813 -12,16.5625c-3.88286,5.71931 -7.86757,11.34977 -11.9375,16.9375c-4.52693,6.21991 -8.93068,12.50924 -13.25,18.875c-4.3087,6.34713 -8.71871,12.59412 -13.28613,18.75732c-3.90773,5.27953 -7.69607,10.63763 -11.47021,16.01318c-3.63818,5.17404 -7.33635,10.30142 -11.05615,15.41699c-4.50362,6.20023 -8.88357,12.47215 -13.1875,18.8125c-4.3051,6.34152 -8.71348,12.58125 -13.27295,18.74194c-3.50266,4.73721 -6.94526,9.51393 -10.35205,14.32056c-0.47123,0.66081 -0.94247,1.32161 -1.42798,2.00244c-1.46154,2.06884 -2.89504,4.15474 -4.32202,6.24756c-0.53077,0.76167 -1.06154,1.52335 -1.6084,2.30811c-5.76601,8.60605 -9.87268,17.9142 -14.1416,27.31689c-0.83241,1.81728 -1.66568,3.63417 -2.49976,5.45068c-1.72914,3.76754 -3.45459,7.53674 -5.17749,11.30713c-3.62061,7.91525 -7.28918,15.80819 -10.95584,23.70218c-5.89898,12.70417 -11.77549,25.41869 -17.64035,38.13864c-2.60589,5.65173 -5.21473,11.30209 -7.82483,16.95187c-1.71842,3.71979 -3.43575,7.44008 -5.14978,11.1619c-11.65654,25.30192 -11.65654,25.30192 -17.12695,35.8501c-0.34233,0.67144 -0.68465,1.34288 -1.03735,2.03467c-2.37992,4.46527 -4.71438,6.68751 -9.15015,8.96533c-3.4873,1.0543 -6.04537,1.16373 -9.6875,0.8125c-2.40627,-1.58346 -4.24558,-2.99931 -6.3125,-4.9375c-0.56195,-0.50362 -1.1239,-1.00724 -1.70288,-1.52612c-1.13973,-1.02383 -2.27339,-2.05448 -3.40063,-3.09204c-1.38104,-1.25929 -2.79994,-2.47682 -4.22461,-3.68652c-6.68963,-5.71856 -12.25159,-12.21638 -17.86133,-18.96143c-1.45262,-1.74191 -2.91765,-3.47234 -4.38867,-5.19873c-4.23428,-4.97058 -8.42805,-9.96811 -12.54687,-15.03516c-3.95758,-4.86379 -8.02792,-9.62131 -12.12085,-14.37085c-3.77499,-4.38965 -7.44894,-8.8528 -11.0979,-13.3479c-2.73677,-3.32061 -5.53478,-6.58422 -8.34375,-9.84375c-3.55453,-4.12468 -7.06792,-8.27208 -10.5,-12.5c-4.38713,-5.40076 -8.91223,-10.67468 -13.44922,-15.94922c-6.226,-7.23894 -12.41164,-14.50944 -18.42578,-21.92578c-4.16656,-5.12234 -8.48701,-10.09917 -12.82544,-15.07544c-3.92445,-4.51171 -7.73383,-9.10282 -11.49878,-13.74878c-3.18113,-3.87245 -6.44832,-7.66807 -9.7168,-11.4668c-4.77373,-5.54817 -9.50329,-11.13273 -14.2251,-16.7251c-1.36747,-1.61905 -2.73601,-3.2372 -4.10498,-4.85498c-0.45391,-0.53657 -0.90782,-1.07314 -1.37549,-1.62598c-0.92068,-1.08733 -1.84223,-2.17392 -2.76465,-3.25977c-2.25183,-2.65323 -4.48741,-5.31676 -6.68799,-8.0127c-5.84789,-7.11626 -12.08709,-13.68993 -18.68042,-20.12427c-3.86737,-3.78499 -7.49126,-7.68261 -11.02173,-11.78271c-2.76606,-3.1269 -5.74172,-6.02931 -8.72363,-8.94849c-7.31571,-7.2319 -7.31571,-7.2319 -10.4375,-10.9375c-3.45289,-4.08871 -7.26327,-7.79985 -11.0625,-11.5625c-4.36531,-4.32329 -8.60614,-8.64677 -12.56641,-13.34766c-2.8531,-3.17587 -5.89982,-6.14994 -8.93359,-9.15234c-7.35716,-7.2811 -7.35716,-7.2811 -10.4375,-10.9375c-3.45289,-4.08871 -7.26327,-7.79985 -11.0625,-11.5625c-4.35992,-4.31795 -8.5991,-8.63358 -12.55078,-13.33203c-3.51746,-3.91221 -7.30836,-7.56473 -11.0647,-11.24634c-5.94873,-5.86365 -5.94873,-5.86365 -7.88452,-8.92163c0,-0.66 0,-1.32 0,-2z" fill="#50e5ff"/><path d="M-500.83809,-35.97949c4.21544,-0.79453 7.79689,-0.94107 12,0c4.39692,3.4296 7.61938,7.59827 11,12c1.49612,1.8365 2.99593,3.67 4.5,5.5c1.08281,1.34578 1.08281,1.34578 2.1875,2.71875c2.51221,3.02144 5.13652,5.90565 7.8125,8.78125c4.28958,4.61002 8.30411,9.37783 12.25391,14.28516c2.3344,2.82158 4.766,5.52075 7.24609,8.21484c4.09351,4.44727 7.92442,9.04717 11.71875,13.75c3.14319,3.78905 6.48284,7.38269 9.81641,11.00391c2.39192,2.66485 4.65739,5.39441 6.90234,8.18359c3.66015,4.53807 7.51371,8.82446 11.48291,13.08838c2.93094,3.16746 5.69979,6.41501 8.39209,9.78662c8.33753,10.32902 17.66852,19.8582 27.16113,29.12451c2.76456,2.71658 5.37478,5.50481 7.90527,8.44189c3.67589,4.25004 7.61129,8.1881 11.62109,12.12109c3.95867,3.88284 7.85058,7.76341 11.46875,11.96875c3.79267,4.40328 7.88698,8.46112 12.03125,12.53125c1.45045,1.42451 2.89839,2.85157 4.34375,4.28125c0.631,0.61939 1.26199,1.23879 1.91211,1.87695c1.8934,1.97579 3.65718,3.99263 5.4292,6.0752c4.01624,4.62007 8.47583,8.64947 13.01025,12.75098c20.9276,19.37266 36.16487,35.07221 43.00969,63.09628c1.82521,6.75602 5.86693,10.70523 10.795,15.41934c0.9808,1.16051 1.9393,2.34064 2.86328,3.54688c0.40557,0.52739 0.81114,1.05478 1.229,1.59814c0.40267,0.52964 0.80534,1.05929 1.22021,1.60498c4.27695,5.54035 8.74213,10.87281 13.35571,16.13525c3.12681,3.59904 5.88394,7.30068 8.58179,11.23975c5.10361,6.98242 11.7927,11.6582 18.83179,16.53345c1.29378,0.90484 2.57321,1.83049 3.83838,2.7749c4.14853,3.08926 6.9311,4.08092 12.07983,4.56665c1.3533,0.62515 2.69207,1.28477 4,2c0.43232,-0.4125 0.86464,-0.825 1.31006,-1.25c2.01778,-1.92078 4.04076,-3.83596 6.06494,-5.75c0.73372,-0.69625 1.46744,-1.39251 2.22339,-2.10986c3.75821,-3.53358 7.48773,-6.79229 11.71411,-9.76514c4.24578,-3.31158 6.76988,-6.9922 9.57031,-11.5c0.97301,-1.53435 1.9471,-3.068 2.92212,-4.60107c0.51636,-0.81515 1.03272,-1.6303 1.56473,-2.47015c2.85227,-4.46781 5.77657,-8.88799 8.69675,-13.31158c0.91605,-1.38976 0.91605,-1.38976 1.8506,-2.80759c1.25085,-1.89755 2.50207,-3.79485 3.75365,-5.69193c1.89384,-2.8707 3.78648,-5.74218 5.67896,-8.61377c1.23887,-1.87895 2.4778,-3.75785 3.7168,-5.63672c0.60092,-0.91173 1.20185,-1.82346 1.82098,-2.76282c2.64746,-4.01259 5.30127,-8.02004 7.99054,-12.00476c5.05709,-7.49544 9.80243,-15.09594 14.24707,-22.97461c1.29284,-2.26644 2.58716,-4.53204 3.88281,-6.79687c0.32768,-0.57355 0.65537,-1.1471 0.99298,-1.73804c3.59512,-6.28061 7.29588,-12.49781 10.99921,-18.71509c7.78941,-13.09681 15.41192,-26.28579 23,-39.5c16.11797,-28.06852 32.26512,-56.15796 49.9375,-83.28516c3.61417,-5.55187 7.18156,-11.13351 10.75,-16.71484c1.01296,-1.58373 1.01296,-1.58373 2.04639,-3.19946c2.08907,-3.26661 4.17767,-6.53352 6.26611,-9.80054c19.81151,-30.99171 19.81151,-30.99171 23.34106,-36.34741c2.02066,-3.06807 3.95411,-6.13395 5.72144,-9.35571c1.80598,-3.13133 3.35065,-5.77184 5.9375,-8.29687c3.86155,-0.96025 7.11848,-0.7706 11,0c-1.5975,4.62387 -4.0663,8.39289 -6.75,12.4375c-0.99568,1.51895 -1.99043,3.03851 -2.98437,4.55859c-0.79374,1.21212 -0.79374,1.21212 -1.60352,2.44873c-2.92398,4.49506 -5.79024,9.02672 -8.66211,13.55518c-4.09916,6.45449 -8.21246,12.89869 -12.375,19.3125c-5.15712,7.94732 -10.27029,15.92242 -15.36841,23.90771c-3.41889,5.354 -6.84891,10.69987 -10.31128,16.02588c-8.11263,12.51087 -15.78265,25.19739 -23.16406,38.15234c-3.84803,6.74809 -7.8059,13.42791 -11.78125,20.10156c-7.78945,13.09679 -15.41192,26.28579 -23,39.5c-31.63127,55.08405 -31.63127,55.08405 -45.375,75.5625c-4.25348,6.35924 -8.46521,12.74521 -12.66406,19.14062c-1.25259,1.90626 -2.50519,3.81251 -3.75781,5.71875c-1.9209,2.92363 -3.841,5.84777 -5.75879,8.77344c-20.22262,30.84284 -20.22262,30.84284 -34.2959,42.94141c-3.33505,2.8924 -6.58799,5.8751 -9.85156,8.84766c-6.19075,5.4327 -6.19075,5.4327 -10.42187,5.32813c-3.875,-0.3125 -3.875,-0.3125 -5.875,-2.3125c-1.01449,-0.0709 -2.02898,-0.1418 -3.07422,-0.21484c-5.28232,-0.63246 -8.75861,-4.06006 -12.73828,-7.34766c-0.7968,-0.6426 -1.5936,-1.2852 -2.41455,-1.94727c-1.57002,-1.26678 -3.13625,-2.53827 -4.69824,-3.81494c-2.43161,-1.96349 -4.94138,-3.81138 -7.44971,-5.67529c-9.17771,-7.39884 -16.22679,-17.39674 -23.40112,-26.66724c-3.99964,-5.13501 -8.23129,-10.0483 -12.5459,-14.92041c-1.0074,-1.14306 -2.00507,-2.29479 -2.99168,-3.45584c-1.0879,-1.26223 -2.20446,-2.50057 -3.35368,-3.70723c-4.02472,-4.5575 -6.11583,-8.95035 -7.68661,-14.78151c-7.35406,-26.82731 -21.65232,-42.39329 -41.72571,-61.06848c-3.86752,-3.62152 -7.67071,-7.30934 -11.47888,-10.99304c-4.28677,-4.14125 -8.57818,-8.27592 -12.91904,-12.36053c-6.15375,-5.79266 -12.09272,-11.5541 -17.52237,-18.04572c-1.29329,-1.35197 -2.60145,-2.69026 -3.9375,-4c-0.66773,-0.66 -1.33547,-1.32 -2.02344,-2c-0.67289,-0.66 -1.34578,-1.32 -2.03906,-2c-3.96221,-3.8863 -7.85636,-7.77032 -11.47656,-11.98047c-3.74284,-4.34615 -7.79948,-8.32474 -11.89844,-12.33203c-5.53828,-5.47239 -10.71974,-10.95222 -15.52344,-17.08203c-2.41027,-2.9882 -4.98498,-5.79953 -7.60156,-8.60547c-4.2901,-4.6095 -8.30415,-9.37788 -12.25391,-14.28516c-2.3344,-2.82158 -4.766,-5.52075 -7.24609,-8.21484c-4.09351,-4.44727 -7.92442,-9.04717 -11.71875,-13.75c-3.14319,-3.78905 -6.48284,-7.38269 -9.81641,-11.00391c-2.39192,-2.66485 -4.65739,-5.39441 -6.90234,-8.18359c-3.22193,-3.99474 -6.56905,-7.80804 -10.0625,-11.5625c-4.28955,-4.61004 -8.30411,-9.37783 -12.25391,-14.28516c-2.3344,-2.82158 -4.766,-5.52075 -7.24609,-8.21484c-12.47428,-13.58354 -12.47428,-13.58354 -17,-21.5z" fill="#51e5ff"/><path d="M-1775.83809,85.02051c2.79304,5.58608 3.83674,11.36384 5.1875,17.4375c0.28553,1.22783 0.57105,2.45566 0.86523,3.7207c0.2649,1.184 0.5298,2.36801 0.80273,3.58789c0.24387,1.07951 0.48775,2.15902 0.73901,3.27124c0.41315,3.03882 0.31454,5.06696 -0.59448,7.98267c-0.66,0.66 -1.32,1.32 -2,2c-1.65,-0.33 -3.3,-0.66 -5,-1c0,-12.21 0,-24.42 0,-37z" fill="#51e5ff"/><path d="M-1775.83809,36.02051c1,4 1,4 1,4z" fill="#4eeeff"/></g></g></svg>